<svg width="259" height="64" viewBox="0 0 259 64" fill="none" xmlns="http://www.w3.org/2000/svg">
<path d="M240.102 12.2357L240.102 6.69141L258.999 6.69141L258.999 12.2357L240.102 12.2357Z" fill="#FFFBF5"/>
<path d="M246.785 0L252.321 0V18.9271H246.785V0Z" fill="#FFFBF5"/>
<path d="M223.408 13.3361C223.408 14.6512 223.053 15.8411 222.345 16.9058C221.636 17.9704 220.604 18.7532 219.249 19.2543L224.033 28.2724H216.279L212.465 20.4128H209.902V28.2724H202.992V6.729H216.154C217.697 6.729 219.01 7.0317 220.094 7.63708C221.198 8.2216 222.021 9.0253 222.563 10.0482C223.126 11.0502 223.408 12.1462 223.408 13.3361ZM216.373 13.6179C216.373 13.0543 216.186 12.5846 215.81 12.2088C215.435 11.833 214.977 11.6452 214.435 11.6452H209.902V15.6219H214.435C214.977 15.6219 215.435 15.4341 215.81 15.0583C216.186 14.6617 216.373 14.1815 216.373 13.6179Z" fill="#FFFBF5"/>
<path d="M167.16 6.729H185.762V11.8957H174.069V14.8704H184.074V19.8179H174.069V23.1058H185.981V28.2724H167.16V6.729Z" fill="#FFFBF5"/>
<path d="M143.324 28.2724V6.729H150.234V28.2724H143.324Z" fill="#FFFBF5"/>
<path d="M108.773 6.729H115.683V22.7613H126.719V28.2724H108.773V6.729Z" fill="#FFFBF5"/>
<path d="M72.9414 6.729H91.5434V11.8957H79.8507V14.8704H89.8552V19.8179H79.8507V23.1058H91.7623V28.2724H72.9414V6.729Z" fill="#FFFBF5"/>
<path d="M16.4136 28.2724L15.5069 25.2351H7.9723L7.06564 28.2724H0L7.84724 6.729H15.8821L23.7293 28.2724H16.4136ZM9.41044 20.4128H14.0688L11.8178 12.7411H11.6927L9.41044 20.4128Z" fill="#FFFBF5"/>
<path d="M49.9632 12.2401V28.2724H43.0539V12.2401H35.9883V6.729H56.9976V12.2401H49.9632Z" fill="#FFFBF5"/>
<path d="M213.387 42.4565H231.989V47.6232H220.296V50.598H230.3V55.5454H220.296V58.8333H232.208V64H213.387V42.4565Z" fill="#FFFBF5"/>
<path d="M195.771 54.8457C195.771 57.7891 194.844 60.0332 192.989 61.578C191.134 63.1228 188.497 63.8952 185.079 63.8952C181.661 63.8952 179.014 63.1228 177.138 61.578C175.283 60.0332 174.355 57.7891 174.355 54.8457V41.976H181.265V54.7517C181.265 55.9625 181.588 56.9332 182.234 57.6638C182.88 58.3736 183.818 58.7285 185.048 58.7285C186.277 58.7285 187.215 58.3632 187.861 57.6325C188.528 56.9019 188.862 55.9416 188.862 54.7517V41.976H195.771V54.8457Z" fill="#FFFBF5"/>
<path d="M150.55 64L141.515 53.5414V64H135.168V42.4565H141.202L150.237 53.0717V42.4565H156.584V64H150.55Z" fill="#FFFBF5"/>
<path d="M100.133 42.4565H118.735V47.6232H107.042V50.598H117.047V55.5454H107.042V58.8333H118.954V64H100.133V42.4565Z" fill="#FFFBF5"/>
<path d="M69.0542 64L61.4258 42.4565H68.8041L73.1185 56.8606H73.2435L77.5892 42.4565H84.6549L77.0577 64H69.0542Z" fill="#FFFBF5"/>
<path d="M43.4487 64L42.5421 60.9626H35.0075L34.1008 64H27.0352L34.8824 42.4565H42.9172L50.7645 64H43.4487ZM36.4456 56.1404H41.1039L38.8529 48.4687H38.7279L36.4456 56.1404Z" fill="#FFFBF5"/>
</svg>
